# xmcd
#
# Track frame offsets: 
#        150
#        18927
#        44080
#        64142
#        85275
#        108662
#        136990
#        158677
#        181010
#        209082
#        224645
#        244615
#        262627
#        278585
#
# Disc length: 4250 seconds
#
# Revision: 0
# Processed by: cddbd v1.5.2PL0 Copyright (c) Steve Scherf et al.
# Submitted via: ExactAudioCopy v0.99pb5
#
DISCID=c710980e
DTITLE=Unlimited Blues Time - Love Dealer
DYEAR=1995
DGENRE=Blues
TTITLE0=I'm forgetting you
TTITLE1=I'm walking alone
TTITLE2=Love Dealer
TTITLE3=Unsocial Security
TTITLE4=Too easy
TTITLE5=The Nite
TTITLE6=Everything you've heard about me (is true)
TTITLE7=White Lady
TTITLE8=Your Disillusion
TTITLE9=I got U
TTITLE10=Just another monday
TTITLE11=Blood out of a stone
TTITLE12=Vultures
TTITLE13=That's down to you
EXTD=
EXTT0=
EXTT1=
EXTT2=
EXTT3=
EXTT4=
EXTT5=
EXTT6=
EXTT7=
EXTT8=
EXTT9=
EXTT10=
EXTT11=
EXTT12=
EXTT13=
PLAYORDER=
